<svg width="80" height="80" viewBox="0 0 80 80" fill="none" xmlns="http://www.w3.org/2000/svg">
<path d="M39.9997 58.9769C61.228 58.9769 78.4369 50.4805 78.4369 39.9997C78.4369 29.5188 61.228 21.0225 39.9997 21.0225C18.7714 21.0225 1.5625 29.5188 1.5625 39.9997C1.5625 50.4805 18.7714 58.9769 39.9997 58.9769Z" fill="#6181B6"/>
<path d="M47.7825 46.1331L49.6925 36.5738C50.1265 34.4167 49.7647 32.8095 48.6219 31.7941C47.5221 30.8072 45.6563 30.3278 42.9074 30.3278H39.6098L40.5496 25.5906C40.5788 25.4073 40.5358 25.224 40.42 25.0832C40.3042 24.9424 40.131 24.8574 39.9424 24.8574H35.3856C35.0817 24.8574 34.8357 25.0692 34.7778 25.3509L32.7525 35.502C32.5644 34.3597 32.116 33.3728 31.393 32.5692C30.0621 31.0749 27.9354 30.3278 25.1143 30.3278H16.2753C15.9714 30.3278 15.7254 30.5396 15.6675 30.8212L11.5591 51.3632C11.5305 51.547 11.5735 51.7303 11.6893 51.8711C11.8051 52.0119 11.9783 52.0969 12.1669 52.0969H16.7673C17.0712 52.0969 17.3172 51.8846 17.3751 51.6034L18.3734 46.626H21.7874C23.581 46.626 25.0856 46.4427 26.272 46.0621C27.4726 45.681 28.5862 45.0328 29.5558 44.1448C30.3511 43.4395 31.0025 42.6505 31.4945 41.7904L30.6699 45.8933C30.6407 46.0761 30.6843 46.2599 30.8001 46.4002C30.9159 46.5416 31.0896 46.626 31.2777 46.626H35.8345C36.1384 46.626 36.3844 46.4142 36.4423 46.1325L38.6849 34.8537H41.8099C43.1402 34.8537 43.5312 35.1074 43.6327 35.2203C43.7342 35.3192 43.9366 35.6858 43.705 36.7995L41.9251 45.9073C41.8959 46.0911 41.9395 46.2739 42.0553 46.4147C42.1711 46.5556 42.3443 46.6405 42.5324 46.6405H47.162C47.4648 46.6265 47.7246 46.4292 47.7825 46.1331ZM26.6613 38.2374C26.3723 39.6753 25.8368 40.6901 25.0553 41.2825C24.2599 41.8748 23.0008 42.1705 21.2943 42.1705H19.2542L20.7301 34.7828H23.3626C25.3012 34.7828 26.0822 35.1918 26.3861 35.5299C26.8207 35.9959 26.9222 36.9264 26.6613 38.2374Z" fill="white"/>
<path d="M67.2688 32.5698C65.938 31.0755 63.8113 30.3284 60.9901 30.3284H52.1517C51.8479 30.3284 51.6019 30.5402 51.544 30.8218L47.4493 51.3783C47.4201 51.561 47.4642 51.7448 47.5795 51.8851C47.6953 52.0265 47.8691 52.1109 48.0566 52.1109H52.6575C52.9614 52.1109 53.2068 51.8997 53.2653 51.6175L54.2636 46.6405H57.6776C59.4712 46.6405 60.9758 46.4572 62.1622 46.0761C63.3634 45.6961 64.477 45.0473 65.446 44.1593C66.2562 43.4262 66.9363 42.6086 67.4426 41.7201C67.9489 40.8321 68.3101 39.8452 68.5275 38.7873C69.0343 36.1648 68.6146 34.0787 67.2688 32.5698ZM62.5096 38.2375C62.2212 39.6753 61.6856 40.6902 60.9046 41.2825C60.1088 41.8749 58.8502 42.1705 57.1432 42.1705H55.1036L56.5789 34.7828H59.212C61.1506 34.7828 61.9316 35.1919 62.235 35.53C62.6834 35.996 62.77 36.9264 62.5096 38.2375Z" fill="white"/>
</svg>
