<svg width="80" height="80" viewBox="0 0 80 80" fill="none" xmlns="http://www.w3.org/2000/svg">
<path d="M5.66375 39.5C5.66375 53.0831 13.5262 64.8211 24.9281 70.3838L8.62313 25.5348C6.66855 29.9289 5.6601 34.6877 5.66375 39.5ZM62.9203 37.7682C62.9203 33.5276 61.4028 30.5905 60.1016 28.3047C58.3688 25.478 56.7447 23.0843 56.7447 20.2576C56.7447 17.1031 59.1278 14.1667 62.4847 14.1667C62.6363 14.1667 62.7797 14.1855 62.9275 14.1943C56.8463 8.60086 48.7441 5.18596 39.8453 5.18596C27.9038 5.18596 17.3978 11.3369 11.2859 20.6533C12.0878 20.6774 12.8434 20.694 13.4856 20.694C17.0606 20.694 22.595 20.2589 22.595 20.2589C24.4378 20.1497 24.655 22.8666 22.8144 23.0856C22.8144 23.0856 20.9625 23.3042 18.9019 23.4125L31.35 60.5824L38.8303 38.06L33.5047 23.4115C31.6641 23.3033 29.9203 23.0846 29.9203 23.0846C28.0784 22.9761 28.2944 20.1488 30.1363 20.258C30.1363 20.258 35.7813 20.6934 39.1397 20.6934C42.7147 20.6934 48.2494 20.258 48.2494 20.258C50.0931 20.1488 50.31 22.8656 48.4688 23.0846C48.4688 23.0846 46.6131 23.3033 44.5563 23.4115L56.9091 60.2997L60.3184 48.8619C61.7959 44.1155 62.9206 40.7066 62.9206 37.7686L62.9203 37.7682ZM40.445 42.5017L30.1894 72.4195C33.3249 73.3466 36.5766 73.8174 39.8453 73.8175C43.8256 73.8175 47.6428 73.1267 51.1963 71.8724C51.1014 71.7223 51.0199 71.5641 50.9528 71.3996L40.445 42.5017ZM69.8381 23.0366C69.9935 24.2063 70.0705 25.3851 70.0684 26.5651C70.0684 30.0475 69.4206 33.9618 67.4694 38.8562L57.0284 69.1621C67.1903 63.2129 74.0253 52.1604 74.0253 39.5009C74.0259 33.5348 72.5078 27.9245 69.8378 23.0366H69.8381ZM39.8453 -0.5C17.875 -0.5 0 17.4438 0 39.5C0 61.559 17.875 79.5022 39.8453 79.5022C61.8147 79.5022 79.6922 61.559 79.6922 39.5C79.6919 17.4438 61.815 -0.5 39.8456 -0.5H39.8453ZM39.8453 77.6688C18.8828 77.6688 1.82688 60.5463 1.82688 39.5C1.82688 18.4553 18.8819 1.33404 39.8453 1.33404C60.8072 1.33404 77.8616 18.4553 77.8616 39.5C77.8616 60.5463 60.8072 77.6688 39.8453 77.6688Z" fill="white"/>
</svg>
